<svg xmlns="http://www.w3.org/2000/svg" width="220" height="220" viewBox="0 0 220 220">
  <rect width="220" height="220" rx="42" fill="#6d4c2f"/>
  <circle cx="110" cy="100" r="58" fill="#d97706"/>
  <path d="M110 52c18 0 30 12 30 30v42c0 8-6 14-14 14H94c-8 0-14-6-14-14V82c0-18 12-30 30-30z" fill="#fdf6ec"/>
  <circle cx="92" cy="90" r="5" fill="#6d4c2f"/>
  <circle cx="116" cy="90" r="5" fill="#6d4c2f"/>
  <path d="M96 106c7 7 14 7 21 0 7-7 13-7 20 0" fill="none" stroke="#6d4c2f" stroke-width="4" stroke-linecap="round"/>
  <text x="110" y="180" font-family="Arial, sans-serif" font-size="24" font-weight="bold" fill="#fff" text-anchor="middle">Tiara</text>
  <text x="110" y="201" font-family="Arial, sans-serif" font-size="12" fill="#f3e9dc" text-anchor="middle">BAKERY</text>
</svg>
